<?xml version="1.0" standalone="no"?>
<!DOCTYPE svg PUBLIC "-//W3C//DTD SVG 20010904//EN"
 "http://www.w3.org/TR/2001/REC-SVG-20010904/DTD/svg10.dtd">
<svg version="1.0" xmlns="http://www.w3.org/2000/svg"
 width="984.000000pt" height="984.000000pt" viewBox="0 0 984.000000 984.000000"
 preserveAspectRatio="xMidYMid meet">
<metadata>
Created by potrace 1.11, written by Peter Selinger 2001-2013
</metadata>
<g transform="translate(0.000000,984.000000) scale(0.100000,-0.100000)"
fill="#000000" stroke="none">
<path d="M4459 9625 c-2 -2 -47 -6 -99 -9 -97 -7 -157 -12 -220 -21 -19 -3
-57 -8 -85 -11 -48 -6 -59 -8 -115 -18 -21 -5 -57 -11 -120 -21 -48 -7 -108
-21 -215 -47 -66 -17 -127 -32 -135 -33 -8 -2 -16 -4 -17 -5 -2 -2 -7 -4 -13
-5 -5 -1 -11 -3 -12 -5 -3 -2 -16 -5 -53 -13 -29 -7 -296 -96 -320 -107 -11
-5 -67 -28 -125 -51 -105 -41 -421 -193 -515 -247 -140 -80 -276 -166 -429
-272 -47 -32 -216 -161 -240 -182 -14 -13 -39 -34 -55 -46 -17 -13 -46 -38
-65 -55 -19 -18 -52 -47 -73 -65 -69 -61 -273 -265 -273 -274 0 -5 -5 -6 -10
-3 -6 3 -10 2 -10 -3 0 -5 -16 -27 -36 -48 -19 -22 -54 -61 -77 -88 -23 -27
-47 -54 -52 -60 -46 -50 -228 -293 -300 -401 -22 -33 -44 -63 -50 -67 -5 -4
-6 -8 -1 -8 5 0 0 -10 -11 -22 -11 -13 -42 -61 -69 -108 -27 -46 -54 -94 -61
-105 -6 -11 -22 -41 -35 -67 -12 -27 -26 -48 -30 -48 -5 0 -8 -5 -8 -11 0 -6
-26 -63 -58 -127 -32 -65 -65 -135 -74 -157 -9 -22 -34 -83 -56 -136 -37 -88
-132 -356 -136 -383 -1 -6 -4 -15 -8 -21 -7 -13 -105 -409 -112 -455 -3 -19
-10 -60 -16 -90 -6 -30 -13 -73 -16 -95 -2 -22 -6 -53 -9 -70 -3 -16 -7 -52
-10 -80 -3 -27 -7 -63 -9 -80 -14 -98 -21 -262 -20 -495 0 -212 8 -445 14
-445 2 0 4 -18 25 -205 3 -32 27 -176 40 -240 21 -109 30 -149 57 -253 16 -65
31 -124 32 -130 2 -7 6 -19 9 -27 3 -8 17 -53 31 -100 13 -47 30 -98 37 -115
6 -16 13 -36 15 -43 1 -8 6 -21 10 -30 4 -9 8 -24 10 -32 2 -8 7 -23 12 -35 5
-11 18 -40 28 -65 9 -25 25 -63 35 -85 9 -22 27 -65 40 -95 51 -122 232 -469
251 -481 5 -3 10 -10 9 -15 0 -5 10 -25 22 -44 12 -19 24 -39 26 -45 16 -38
246 -363 320 -453 11 -13 34 -41 51 -62 163 -199 358 -396 596 -601 102 -88
116 -99 124 -99 5 0 10 -3 12 -7 8 -19 425 -313 443 -313 3 0 23 -12 45 -26
52 -35 67 -43 292 -156 215 -108 271 -134 373 -172 39 -15 79 -31 90 -36 18
-8 63 -23 75 -25 3 0 14 -6 25 -12 11 -6 22 -11 25 -11 7 0 208 -61 240 -72
14 -6 34 -11 45 -13 11 -2 27 -7 35 -10 12 -4 89 -24 130 -32 3 -1 30 -7 60
-13 30 -7 66 -14 80 -17 14 -3 36 -7 50 -10 43 -9 73 -14 115 -20 22 -3 47 -8
56 -11 9 -2 36 -7 60 -9 24 -3 62 -7 84 -10 39 -5 66 -8 230 -23 44 -4 202 -7
350 -7 273 0 399 7 571 30 17 2 57 7 90 11 32 3 61 7 64 9 3 2 33 7 65 10 33
4 64 10 69 12 4 3 25 8 45 10 87 11 532 126 556 143 8 6 52 20 75 24 6 1 20 7
175 66 242 93 490 214 683 332 34 21 64 38 67 38 6 0 346 229 360 243 6 7 24
21 39 32 16 11 33 25 40 30 6 6 27 22 46 36 19 15 45 36 57 48 12 12 24 21 27
21 3 0 16 10 29 22 13 13 61 57 107 98 138 124 296 287 415 425 28 32 58 67
68 77 9 10 17 22 17 27 0 5 7 14 15 21 9 7 56 67 105 134 49 67 96 129 105
139 8 9 15 19 15 22 0 3 29 49 64 102 35 54 73 114 84 134 11 20 26 47 34 60
7 13 19 32 27 42 8 9 10 17 6 17 -4 0 -2 8 6 18 29 34 128 229 121 236 -3 3 0
6 6 6 7 0 12 5 12 12 0 6 13 39 29 72 40 83 130 301 146 356 7 25 22 69 33 98
11 29 21 55 21 57 1 3 1 6 2 8 0 1 2 9 4 17 20 80 69 226 77 231 6 4 29 10 52
13 51 8 191 75 236 113 58 49 95 87 126 128 16 22 31 42 34 45 3 3 17 30 32
60 22 47 34 80 55 160 3 8 6 57 8 109 3 91 -11 181 -38 246 -6 17 -12 32 -12
35 -1 12 -67 118 -91 145 -14 17 -31 37 -38 46 -18 26 -137 112 -182 132 -40
18 -41 20 -43 70 -7 181 -10 221 -16 288 -4 41 -9 90 -10 109 -2 19 -11 85
-20 145 -9 61 -18 124 -20 140 -13 88 -37 196 -91 405 -20 80 -37 151 -37 157
0 7 -3 13 -7 13 -4 0 -7 6 -7 13 -1 12 -47 156 -62 192 -5 11 -24 61 -42 110
-18 50 -36 94 -41 99 -4 6 -8 18 -8 28 0 10 -4 18 -8 18 -5 0 -9 6 -9 13 0 6
-17 47 -37 90 -20 42 -36 82 -36 87 0 6 -5 10 -12 10 -6 0 -9 3 -6 6 9 8 -138
289 -170 327 -8 9 -11 17 -7 17 4 0 1 8 -7 18 -8 9 -41 60 -73 112 -33 52 -63
97 -67 98 -4 2 -8 8 -8 13 0 5 -41 66 -91 134 -58 81 -95 123 -102 118 -12 -7
-91 -89 -229 -236 l-66 -71 26 -35 c15 -20 30 -37 35 -39 4 -2 7 -10 7 -17 0
-7 4 -15 8 -17 13 -5 151 -218 219 -338 65 -114 165 -312 202 -400 26 -61 44
-104 65 -152 8 -18 22 -55 31 -83 9 -27 20 -59 25 -70 18 -43 71 -211 85 -270
7 -33 19 -71 23 -79 3 -6 7 -19 8 -30 1 -12 12 -61 23 -111 33 -138 62 -312
76 -456 4 -35 8 -80 10 -99 12 -121 15 -290 5 -290 -6 0 -27 -7 -48 -17 -20
-9 -40 -17 -44 -17 -4 -1 -36 -20 -71 -43 -68 -45 -187 -164 -187 -188 0 -7
-4 -15 -8 -17 -5 -1 -22 -32 -40 -68 -65 -137 -78 -323 -31 -469 18 -57 68
-156 89 -179 11 -12 20 -24 20 -28 0 -11 93 -98 142 -133 42 -30 45 -36 38
-60 -5 -14 -23 -73 -40 -131 -34 -110 -118 -343 -152 -420 -37 -82 -188 -384
-212 -425 -14 -22 -34 -57 -46 -79 -11 -21 -27 -45 -36 -53 -8 -8 -12 -18 -9
-23 3 -5 2 -10 -2 -12 -5 -1 -35 -43 -68 -93 -33 -49 -63 -94 -67 -100 -25
-32 -65 -86 -78 -105 -8 -12 -20 -28 -25 -34 -6 -6 -26 -31 -45 -56 -153 -198
-411 -461 -615 -630 -27 -22 -61 -50 -73 -60 -13 -11 -27 -20 -31 -20 -3 0
-13 -9 -21 -20 -8 -11 -20 -20 -27 -20 -7 0 -13 -4 -13 -8 0 -4 -13 -16 -30
-25 -16 -10 -35 -23 -42 -30 -20 -18 -136 -97 -143 -97 -3 0 -11 -5 -18 -10
-41 -36 -213 -137 -382 -225 -102 -53 -400 -187 -425 -191 -3 0 -16 -5 -30
-11 -70 -29 -401 -133 -440 -138 -8 -1 -35 -8 -60 -15 -25 -6 -56 -14 -70 -16
-14 -3 -33 -7 -42 -10 -10 -3 -30 -7 -45 -10 -16 -3 -54 -9 -86 -15 -32 -6
-70 -12 -85 -14 -15 -2 -40 -6 -57 -9 -171 -30 -326 -39 -625 -39 -272 0 -385
6 -530 28 -14 2 -50 7 -80 11 -30 4 -57 8 -60 9 -3 1 -30 5 -60 9 -53 8 -63
10 -112 21 -13 3 -36 8 -53 11 -48 8 -182 43 -295 76 -58 17 -111 31 -117 31
-7 0 -13 3 -13 7 0 4 -7 7 -15 8 -8 1 -22 3 -30 4 -8 1 -15 6 -15 11 0 6 -2 8
-6 5 -3 -3 -51 12 -107 34 -56 22 -112 42 -125 45 -12 3 -25 9 -28 14 -3 5
-14 9 -25 9 -10 0 -19 5 -19 10 0 6 -7 10 -15 10 -15 0 -307 142 -375 182 -74
44 -191 113 -208 123 -85 49 -307 212 -466 344 -234 194 -468 440 -661 696
-25 33 -49 65 -54 71 -5 6 -42 60 -81 120 -40 60 -81 121 -91 136 -10 15 -19
29 -19 32 0 2 -17 33 -39 67 -71 119 -159 295 -251 504 -73 167 -204 579 -225
710 -8 48 -9 54 -18 80 -3 11 -8 36 -11 55 -2 19 -7 46 -10 60 -3 14 -8 41
-11 60 -2 19 -6 44 -9 55 -2 11 -7 47 -10 80 -4 33 -10 78 -12 100 -19 153
-29 641 -14 650 6 4 7 11 4 17 -8 13 -11 68 -4 68 3 0 5 17 6 38 0 41 11 168
19 222 23 157 24 162 40 245 2 11 6 36 9 55 3 19 10 50 15 68 5 17 7 32 4 32
-3 0 0 6 6 13 6 8 9 16 6 19 -5 5 76 299 100 359 8 20 11 39 8 43 -4 3 -1 6 5
6 7 0 11 3 10 8 -2 11 13 64 25 87 6 11 12 25 13 30 4 21 66 171 76 183 6 6 8
12 5 12 -3 0 7 26 22 58 15 31 34 72 42 90 8 17 18 32 22 32 5 0 6 4 3 9 -3 5
5 25 19 45 13 20 22 36 19 36 -4 0 1 11 10 24 8 13 32 55 52 93 20 37 56 99
80 136 24 37 44 69 44 72 0 8 198 289 238 335 6 8 35 44 64 80 162 200 386
425 591 593 22 18 47 39 57 47 10 8 28 22 40 30 12 8 32 23 43 34 12 10 42 32
67 49 25 17 47 33 50 36 3 4 43 31 90 61 47 30 87 58 88 63 2 4 8 7 13 7 5 0
34 16 66 37 31 20 80 48 107 63 114 60 172 93 184 102 6 6 12 8 12 5 0 -3 30
9 68 27 93 47 146 69 155 68 4 -1 7 3 7 8 0 5 3 9 8 8 4 -1 54 16 112 39 95
37 189 71 215 77 6 2 17 6 25 9 28 12 299 87 307 86 4 -1 15 0 23 4 19 7 119
30 145 33 11 1 31 5 45 8 13 3 40 8 60 11 20 3 46 7 58 10 13 2 60 9 105 15
45 6 96 13 112 16 179 25 798 24 920 -1 11 -2 47 -7 80 -10 33 -3 67 -8 75
-10 8 -2 35 -6 60 -9 56 -8 100 -15 170 -30 14 -3 48 -10 75 -16 88 -18 168
-38 275 -70 41 -12 93 -27 115 -33 22 -5 43 -15 47 -21 4 -6 8 -8 8 -4 0 7 60
-11 105 -31 11 -5 70 -28 130 -52 61 -23 162 -67 225 -97 63 -30 115 -53 115
-51 0 2 14 -5 30 -16 17 -12 48 -30 70 -40 22 -11 42 -23 43 -27 2 -5 12 -8
23 -8 10 0 19 -4 19 -8 0 -5 12 -15 28 -23 15 -7 83 -49 151 -92 l125 -78 80
84 c208 218 217 228 203 241 -7 7 -17 15 -22 17 -6 2 -57 36 -115 74 -107 72
-181 118 -190 120 -3 0 -16 8 -30 17 -61 39 -255 139 -400 205 -71 33 -337
142 -360 148 -3 0 -55 18 -116 38 -61 21 -119 39 -130 42 -10 2 -35 9 -54 15
-19 7 -51 16 -70 20 -19 5 -71 17 -115 28 -68 17 -164 38 -265 57 -27 5 -94
16 -125 21 -11 1 -20 3 -20 4 0 1 -18 3 -40 5 -22 1 -40 4 -40 5 0 3 -41 7
-125 14 -41 4 -93 9 -115 12 -46 6 -631 14 -636 9z"/>
<path d="M7916 8558 c-41 -11 -110 -77 -356 -338 -69 -73 -154 -163 -190 -200
-36 -37 -119 -125 -185 -195 -66 -70 -147 -155 -180 -190 -33 -34 -125 -131
-205 -215 -80 -84 -172 -181 -205 -215 -33 -35 -98 -103 -144 -151 -82 -88
-348 -367 -446 -469 -27 -29 -115 -121 -195 -205 -80 -84 -165 -174 -190 -200
-25 -26 -112 -119 -195 -205 -82 -87 -188 -198 -233 -246 l-84 -87 -62 28
c-53 23 -99 38 -133 42 -5 1 -26 6 -48 12 -22 7 -57 11 -77 11 -21 -1 -38 2
-38 7 0 4 -6 5 -14 2 -8 -3 -45 -7 -83 -9 -37 -2 -68 -4 -68 -5 0 -1 -8 -3
-19 -5 -114 -22 -211 -61 -311 -128 -67 -45 -195 -165 -195 -184 0 -7 -4 -13
-10 -13 -5 0 -10 -7 -10 -15 0 -8 -4 -15 -8 -15 -13 0 -92 -164 -109 -228 -33
-123 -37 -296 -9 -417 2 -11 5 -20 6 -20 1 0 3 -10 6 -23 9 -51 97 -228 124
-252 3 -3 21 -25 39 -48 29 -37 67 -72 174 -158 9 -7 17 -11 17 -7 0 3 8 -1
18 -9 39 -33 157 -79 266 -103 60 -12 252 -13 311 0 307 65 552 293 637 592
18 64 22 103 22 213 0 131 -7 199 -24 230 -4 8 -8 17 -8 20 0 3 -5 18 -11 33
-6 16 -11 32 -11 36 0 4 -13 32 -30 62 l-29 55 70 74 c82 87 315 332 409 431
36 37 121 127 190 200 161 170 129 136 570 599 183 193 193 203 405 426 83 87
175 184 205 215 30 32 114 119 185 195 72 75 146 154 165 174 19 20 105 110
190 200 85 90 173 182 195 205 180 187 197 214 191 307 -10 134 -145 224 -280
186z"/>
<path d="M4627 8364 c-1 -1 -57 -5 -123 -8 -67 -4 -132 -9 -145 -11 -50 -7
-125 -17 -154 -20 -28 -3 -181 -31 -230 -42 -11 -2 -31 -6 -45 -9 -14 -3 -34
-8 -45 -11 -11 -4 -24 -8 -30 -9 -41 -8 -191 -52 -220 -64 -11 -5 -56 -21
-100 -36 -44 -15 -111 -41 -150 -59 -38 -17 -72 -32 -75 -32 -11 0 -225 -109
-228 -115 -2 -5 -12 -8 -23 -8 -10 0 -19 -4 -19 -9 0 -5 -12 -14 -27 -20 -35
-14 -83 -42 -100 -58 -16 -14 -30 -12 -108 21 -60 25 -89 33 -155 42 -68 10
-75 10 -98 2 -15 -5 -21 -4 -17 2 3 5 0 8 -7 5 -7 -2 -32 -6 -56 -9 -24 -3
-62 -11 -85 -17 -55 -15 -177 -70 -177 -80 0 -4 -8 -10 -17 -13 -28 -9 -137
-116 -170 -166 -39 -60 -68 -122 -92 -198 -23 -77 -24 -282 -1 -342 1 -3 2 -9
1 -13 -1 -4 7 -25 18 -46 l18 -39 -74 -109 c-89 -130 -173 -265 -172 -277 0
-5 -3 -12 -9 -15 -10 -7 -88 -153 -117 -221 -11 -25 -23 -47 -27 -50 -4 -3 -9
-15 -11 -25 -1 -11 -12 -40 -23 -65 -39 -85 -57 -131 -57 -145 0 -8 -4 -15 -9
-15 -5 0 -8 -6 -7 -12 1 -7 -4 -26 -11 -43 -7 -16 -14 -34 -14 -40 -3 -20 -27
-101 -36 -120 -5 -11 -12 -32 -14 -47 -3 -15 -7 -31 -9 -35 -3 -5 -8 -24 -11
-43 -3 -19 -10 -50 -15 -69 -6 -19 -8 -38 -5 -42 3 -5 1 -9 -3 -9 -5 0 -9 -8
-9 -17 -1 -10 -4 -34 -8 -53 -9 -50 -16 -90 -21 -130 -2 -19 -6 -48 -9 -65 -5
-31 -16 -141 -22 -210 -5 -65 -4 -406 1 -465 3 -30 8 -82 11 -115 3 -33 6 -69
8 -80 3 -21 18 -130 21 -155 1 -8 5 -22 8 -30 3 -8 11 -49 18 -90 7 -41 17
-81 22 -87 5 -7 7 -13 4 -13 -9 0 67 -274 93 -335 4 -11 14 -36 20 -55 62
-174 190 -434 302 -615 27 -44 55 -89 61 -100 7 -11 14 -22 17 -25 3 -3 28
-36 55 -75 44 -62 127 -167 205 -260 38 -46 299 -305 347 -345 23 -19 56 -46
74 -60 18 -14 37 -29 44 -35 21 -19 91 -72 140 -105 28 -19 55 -39 61 -45 7
-5 42 -28 79 -50 36 -22 82 -50 100 -62 46 -30 264 -142 345 -177 36 -16 79
-34 95 -42 39 -17 166 -65 185 -69 8 -2 48 -15 88 -29 39 -14 72 -23 72 -21 0
2 16 -3 35 -11 19 -8 35 -12 35 -9 0 3 8 1 17 -4 16 -8 44 -15 108 -26 11 -2
20 -4 20 -5 0 -3 41 -11 63 -12 12 0 22 -3 22 -7 0 -3 10 -6 23 -7 19 -1 46
-5 118 -19 15 -3 119 -15 172 -20 11 -1 32 -30 59 -83 44 -89 135 -196 196
-233 20 -13 39 -25 42 -29 5 -5 79 -42 125 -61 48 -21 163 -36 246 -34 74 2
205 32 229 51 8 7 20 13 25 13 22 2 123 72 170 118 83 79 158 206 181 303 4
19 9 38 10 43 1 4 2 12 3 17 0 6 7 10 14 10 21 0 212 63 218 73 3 5 8 8 10 7
9 -4 66 14 99 30 19 10 37 18 40 18 32 3 308 139 433 214 66 40 134 81 151 90
16 10 32 21 35 25 3 4 33 26 66 48 33 22 69 47 80 57 11 9 55 44 97 78 107 85
368 330 368 345 0 2 12 17 28 33 60 64 126 145 240 297 14 20 119 181 143 220
13 22 29 47 34 56 19 30 59 104 60 109 0 3 7 16 15 30 19 33 90 180 90 186 0
2 9 23 19 47 11 23 27 60 36 82 18 42 105 299 110 325 2 8 10 40 19 70 21 72
58 252 72 349 4 25 8 55 10 66 2 11 7 52 10 90 3 39 8 90 11 115 6 68 5 434
-1 520 -12 145 -25 260 -32 280 -3 8 -8 31 -10 50 -2 19 -7 46 -10 60 -3 14
-8 36 -10 50 -3 14 -12 51 -20 83 -8 32 -12 63 -8 69 5 7 3 8 -6 3 -10 -6 -12
-4 -7 7 3 9 3 19 -1 23 -4 4 -7 10 -8 13 -1 7 -13 59 -19 77 -1 6 -3 13 -4 17
-4 21 -74 217 -87 245 -7 17 -14 33 -14 36 0 2 -7 21 -15 41 -8 20 -16 38 -16
41 -1 10 -150 303 -181 357 -67 116 -141 228 -151 228 -9 0 -54 -46 -249 -254
l-56 -59 18 -32 c10 -18 24 -43 32 -56 7 -13 16 -26 19 -29 12 -10 126 -237
168 -334 40 -95 81 -206 91 -251 1 -5 6 -17 10 -25 10 -19 69 -243 76 -285 2
-16 6 -41 9 -55 15 -63 31 -178 42 -290 10 -98 10 -452 0 -555 -7 -77 -10 -97
-22 -175 -4 -19 -7 -44 -9 -55 -3 -18 -13 -72 -23 -120 -2 -11 -6 -31 -9 -45
-3 -14 -10 -43 -16 -65 -6 -22 -13 -48 -15 -58 -6 -32 -101 -310 -123 -359
-11 -26 -21 -51 -21 -55 0 -5 -8 -16 -16 -25 -9 -10 -13 -18 -10 -18 3 0 -21
-53 -55 -117 -33 -65 -66 -128 -72 -140 -6 -13 -14 -23 -18 -23 -5 0 -8 -5 -8
-11 0 -5 -18 -37 -40 -69 -22 -32 -40 -61 -40 -64 0 -3 -6 -14 -14 -23 -8 -10
-44 -57 -80 -105 -136 -181 -301 -357 -450 -480 -33 -28 -63 -54 -66 -57 -8
-10 -181 -136 -230 -167 -25 -16 -47 -31 -50 -34 -9 -9 -45 -30 -70 -41 -13
-5 -27 -14 -30 -18 -6 -9 -22 -18 -175 -94 -65 -32 -141 -67 -169 -79 -28 -11
-62 -25 -76 -31 -14 -6 -27 -11 -30 -12 -3 -1 -12 -4 -20 -8 -46 -18 -170 -57
-182 -57 -7 0 -28 22 -46 49 -79 116 -240 225 -382 257 -68 15 -218 15 -284 0
-148 -35 -289 -121 -371 -228 -41 -53 -64 -90 -84 -135 l-24 -53 -52 5 c-28 3
-63 8 -76 10 -13 3 -40 8 -59 10 -33 5 -71 13 -165 36 -49 12 -85 20 -105 24
-18 3 -21 4 -145 45 -106 35 -283 103 -325 125 -14 7 -43 21 -65 31 -22 11
-52 27 -67 37 -16 10 -28 15 -28 12 0 -3 -13 3 -29 14 -16 12 -31 21 -34 21
-9 0 -112 65 -115 73 -2 4 -8 7 -14 7 -10 0 -94 56 -116 77 -7 7 -17 13 -21
13 -5 0 -24 13 -42 30 -19 16 -40 30 -46 30 -7 0 -13 3 -13 8 0 4 -24 26 -53
48 -140 110 -316 286 -443 444 -86 108 -224 302 -224 315 0 3 -16 29 -35 60
-20 30 -38 63 -42 73 -3 9 -11 24 -17 32 -11 13 -62 122 -126 265 -44 99 -136
391 -155 495 -3 14 -7 35 -10 48 -3 12 -7 30 -9 40 -6 24 -25 159 -31 212 -3
25 -8 72 -12 105 -8 76 -8 434 1 500 3 28 8 73 10 100 4 48 20 153 31 205 3
14 10 45 15 70 5 25 12 56 15 70 3 14 8 34 10 45 3 11 14 52 25 90 12 39 23
77 25 85 1 8 10 33 18 55 8 22 18 49 23 60 4 11 8 25 9 31 6 26 83 198 126
282 27 50 45 92 41 92 -4 0 -2 4 3 8 6 4 24 30 39 57 62 110 162 255 176 255
8 0 35 -8 60 -17 73 -26 174 -40 252 -35 40 2 83 5 96 6 12 0 22 3 22 6 0 3 8
6 18 7 9 1 28 6 42 11 14 5 30 11 35 12 22 6 121 63 141 81 11 10 23 19 27 19
3 0 30 25 59 56 117 123 180 278 181 444 0 96 -1 106 -23 193 -7 28 -9 52 -4
56 5 5 40 25 78 45 38 20 74 40 81 46 6 5 15 7 18 3 4 -3 7 -1 7 5 0 7 3 11 8
10 4 -1 43 15 86 36 44 20 90 39 103 42 13 4 23 9 23 13 0 4 6 8 13 9 6 0 64
19 127 42 63 23 117 42 120 42 3 0 10 2 15 4 18 6 140 36 164 40 12 3 51 11
85 19 56 13 115 23 176 31 45 5 115 14 170 20 30 3 58 8 62 10 4 2 10 0 13 -6
4 -7 11 -7 18 -2 13 9 309 8 412 -2 120 -11 170 -17 190 -21 11 -2 36 -7 55
-10 19 -2 45 -7 56 -9 12 -2 38 -7 59 -10 20 -4 42 -9 47 -12 5 -3 19 -7 31
-9 66 -8 285 -75 412 -125 116 -46 269 -118 384 -182 l54 -30 69 73 c38 41
106 111 150 157 76 80 92 112 53 112 -8 0 -15 5 -15 10 0 6 -5 10 -10 10 -6 0
-29 12 -53 27 -107 68 -404 209 -512 243 -22 7 -46 17 -52 23 -7 5 -13 6 -13
2 0 -4 -6 -3 -12 3 -7 6 -16 11 -20 11 -4 1 -13 3 -20 5 -149 47 -219 67 -248
71 -8 1 -22 5 -30 8 -8 4 -26 8 -40 9 -14 2 -30 6 -35 10 -6 4 -29 9 -50 12
-22 2 -62 9 -90 15 -102 20 -271 40 -400 47 -104 6 -295 11 -298 8z"/>
<path d="M4707 7104 c-1 -1 -54 -4 -117 -8 -143 -8 -285 -27 -347 -47 -18 -6
-37 -8 -43 -4 -5 3 -10 1 -10 -4 0 -6 -3 -10 -7 -9 -7 3 -115 -26 -153 -40 -8
-3 -17 -6 -20 -7 -94 -32 -282 -116 -355 -158 -87 -50 -121 -72 -126 -79 -3
-6 -9 -9 -13 -9 -3 1 -12 -3 -19 -9 -6 -5 -37 -28 -67 -50 -131 -94 -252 -205
-355 -325 -28 -32 -58 -67 -68 -79 -69 -78 -193 -277 -256 -408 -38 -81 -109
-253 -117 -288 -2 -8 -10 -40 -19 -70 -18 -62 -54 -219 -60 -265 -15 -114 -19
-192 -19 -350 1 -99 4 -202 8 -230 9 -72 37 -228 41 -235 2 -4 6 -17 9 -31 53
-264 232 -627 423 -858 274 -331 563 -533 998 -697 28 -10 146 -44 170 -49 11
-2 61 -12 110 -23 50 -11 119 -23 155 -27 36 -4 79 -9 95 -11 39 -6 323 -5
355 0 14 3 50 7 81 11 31 3 67 8 80 11 13 2 40 7 59 10 19 3 78 17 130 30 52
14 102 27 110 29 8 2 16 4 18 5 1 2 7 4 12 5 6 1 11 3 13 5 1 1 9 3 17 5 49 9
375 157 390 176 3 3 19 14 37 23 140 71 434 324 553 475 19 24 40 48 45 55 6
6 35 47 65 91 30 44 58 82 63 83 4 2 7 7 7 11 0 5 22 46 49 92 26 47 54 102
60 122 7 20 17 37 22 37 5 0 9 6 9 14 0 8 10 36 22 63 12 26 22 50 23 53 0 3
15 48 32 100 18 52 34 106 36 120 3 14 10 45 17 70 7 25 14 56 15 70 2 14 4
25 5 25 1 0 3 15 6 34 2 19 6 46 9 60 24 121 23 487 -1 603 -2 13 -7 39 -10
58 -3 19 -7 42 -9 50 -2 8 -7 31 -10 50 -3 19 -10 49 -16 66 -5 17 -12 40 -14
50 -13 56 -25 96 -48 155 -14 37 -23 69 -20 73 4 3 1 6 -5 6 -7 0 -12 5 -12
11 0 7 -18 50 -40 97 l-40 85 -88 -93 c-48 -51 -112 -119 -142 -150 -103 -106
-96 -85 -60 -191 18 -52 34 -100 35 -109 2 -8 4 -15 5 -15 2 0 6 -20 14 -65 4
-19 9 -43 12 -53 28 -91 38 -400 19 -557 -4 -30 -15 -93 -26 -140 -11 -47 -22
-96 -25 -109 -3 -13 -14 -49 -25 -80 -12 -31 -21 -62 -22 -68 0 -7 -4 -13 -9
-13 -4 0 -8 -8 -8 -17 -1 -60 -210 -405 -297 -490 -13 -12 -23 -24 -23 -27 0
-13 -178 -176 -255 -234 -50 -37 -135 -92 -141 -91 -4 0 -10 -3 -13 -8 -12
-18 -211 -113 -307 -147 -139 -49 -254 -76 -399 -93 -115 -13 -382 -6 -459 12
-11 3 -34 7 -51 9 -61 9 -93 17 -220 58 -71 23 -150 52 -174 65 -24 13 -48 23
-53 23 -10 0 -92 47 -173 99 -74 47 -180 127 -227 172 -26 24 -55 51 -65 60
-37 34 -105 112 -153 177 -28 37 -54 72 -58 77 -71 95 -167 290 -217 439 -20
59 -38 118 -41 130 -2 11 -6 32 -9 46 -13 59 -16 77 -20 105 -2 17 -7 53 -10
80 -8 54 -9 308 -2 365 3 19 8 62 12 95 4 33 10 64 12 69 3 4 8 25 10 45 9 64
80 266 132 372 50 103 97 189 110 199 3 3 12 17 20 33 8 15 18 27 23 27 4 0 8
5 8 11 0 6 6 16 13 23 6 7 26 30 42 51 17 21 47 56 68 78 20 21 37 43 37 48 0
5 3 9 8 9 4 0 41 31 82 70 41 38 81 70 88 70 6 0 12 4 12 8 0 14 156 116 261
172 86 45 279 121 341 134 13 3 41 10 63 15 123 30 237 44 385 46 63 1 123 -2
132 -7 10 -5 19 -4 23 2 4 6 11 7 17 4 6 -4 31 -9 55 -10 25 -2 55 -6 69 -9
33 -7 70 -14 97 -19 46 -9 144 -37 197 -56 l54 -20 59 63 c32 34 93 99 135
143 43 45 87 93 100 106 l23 26 -43 19 c-97 45 -171 73 -191 73 -4 0 -20 6
-35 13 -28 15 -132 43 -144 39 -5 -1 -8 3 -8 9 0 5 -4 8 -8 5 -5 -3 -24 -1
-43 4 -19 5 -50 11 -69 14 -19 3 -47 8 -62 11 -16 3 -40 7 -54 10 -39 6 -292
23 -297 19z"/>
</g>
</svg>
